<svg xmlns="http://www.w3.org/2000/svg" height="24" viewBox="0 -960 960 960" width="24"><path d="M263.077-198.461q-56.77 0-96.846-40.077-40.077-40.077-40.077-96.847 0-53.692 37.769-91.461t91.462-37.769q38 0 70.038 20.615 32.039 20.615 47.731 55.615l15.385 36.846h40.922q32.001 0 53.578 22.077 21.576 22.077 21.576 54.077 0 32.001-22.461 54.462-22.462 22.462-54.462 22.462H263.077Zm318.231-108.923q-9.385-51.462-48.193-85.924-38.807-34.461-91.038-37-21.769-45.538-61.962-74.731-40.192-29.192-90.884-36.5 19.846-62.23 72.461-100.346Q414.308-680 480-680q83.077 0 141.539 58.461Q680-563.077 680-480q0 53.462-26.615 99.346-26.616 45.885-72.077 73.27ZM460-743.077v-135.385h40v135.385h-40Zm219.846 91.539-28.308-29.078 95.847-96.307 28.538 29.308-96.077 96.077ZM743.077-460v-40h135.385v40H743.077Zm4.308 276.154-95.847-96.308 29.078-29.077 96.307 95.846-29.538 29.539ZM280.923-650.769l-97.616-97.616 30.078-27 95.846 96.308-28.308 28.308Z"/></svg>